<?xml version="1.0" standalone="no"?><svg xmlns="http://www.w3.org/2000/svg" viewBox="0 0 1440 320"><path fill="#0c819e" fill-opacity="1" d="M0,256L30,218.7C60,181,120,107,180,90.7C240,75,300,117,360,165.3C420,213,480,267,540,250.7C600,235,660,149,720,144C780,139,840,213,900,234.7C960,256,1020,224,1080,213.3C1140,203,1200,213,1260,197.3C1320,181,1380,139,1410,117.3L1440,96L1440,320L1410,320C1380,320,1320,320,1260,320C1200,320,1140,320,1080,320C1020,320,960,320,900,320C840,320,780,320,720,320C660,320,600,320,540,320C480,320,420,320,360,320C300,320,240,320,180,320C120,320,60,320,30,320L0,320Z"></path></svg>