<?xml version="1.0" standalone="no"?><svg xmlns="http://www.w3.org/2000/svg" viewBox="0 0 1440 320"><path fill="#0b98bb" fill-opacity="1" d="M0,192L30,208C60,224,120,256,180,261.3C240,267,300,245,360,213.3C420,181,480,139,540,106.7C600,75,660,53,720,69.3C780,85,840,139,900,181.3C960,224,1020,256,1080,240C1140,224,1200,160,1260,149.3C1320,139,1380,181,1410,202.7L1440,224L1440,320L1410,320C1380,320,1320,320,1260,320C1200,320,1140,320,1080,320C1020,320,960,320,900,320C840,320,780,320,720,320C660,320,600,320,540,320C480,320,420,320,360,320C300,320,240,320,180,320C120,320,60,320,30,320L0,320Z"></path></svg>